<?xml version="1.0" standalone="no"?>
<!DOCTYPE svg PUBLIC "-//W3C//DTD SVG 20010904//EN"
 "http://www.w3.org/TR/2001/REC-SVG-20010904/DTD/svg10.dtd">
<svg version="1.0" xmlns="http://www.w3.org/2000/svg"
 width="32.000000pt" height="32.000000pt" viewBox="0 0 32.000000 32.000000"
 preserveAspectRatio="xMidYMid meet">

<g transform="translate(0.000000,32.000000) scale(0.100000,-0.100000)"
fill="#000000" stroke="none">
<path d="M0 160 l0 -160 160 0 160 0 0 160 0 160 -160 0 -160 0 0 -160z m166
44 c41 -60 49 -57 42 17 -3 32 0 39 14 39 16 0 18 -10 18 -85 0 -102 -10 -107
-66 -37 -58 72 -57 72 -52 10 4 -51 2 -58 -14 -58 -16 0 -18 9 -18 85 0 76 2
85 19 85 11 0 33 -22 57 -56z"/>
</g>
</svg>
